<?xml version="1.0" encoding="utf-8"?>
<!-- Generator: Adobe Illustrator 22.0.1, SVG Export Plug-In . SVG Version: 6.00 Build 0)  -->
<svg version="1.1" id="Layer_1" xmlns="http://www.w3.org/2000/svg" xmlns:xlink="http://www.w3.org/1999/xlink" x="0px" y="0px"
	 viewBox="0 0 100 100" style="enable-background:new 0 0 100 100;" xml:space="preserve">
<style type="text/css">
	.st0{fill:none;}
	.st1{fill:#F2F236;stroke:#000000;stroke-miterlimit:10;}
	.st2{fill:#FFFFFF;stroke:#000000;stroke-linecap:round;stroke-miterlimit:10;}
	.st3{opacity:0.75;stroke:#000000;stroke-miterlimit:10;}
	.st4{fill:none;stroke:#000000;stroke-linecap:round;stroke-miterlimit:10;}
	.st5{fill:none;stroke:#000000;stroke-miterlimit:10;}
</style>
<rect x="-11.5" y="-9.5" class="st0" width="127" height="121"/>
<path class="st1" d="M28.9,28c0,0,52.2,1.5,38.8,22.4S28.9,28,28.9,28z"/>
<circle class="st1" cx="71.4" cy="54.1" r="6.7"/>
<path class="st2" d="M96,50.4c0,6-17.9,5.2-17.9,5.2"/>
<path class="st2" d="M76.6,72.7c0,0,4.5-6.7,0-14.6"/>
<path class="st3" d="M41.3,28.9L28.4,8.6c0,0,16.4-6,19.4,1.5c3,7.5-6-7.5,6-4.5s11.9,11.9,11.9,11.9s11.9-7.5,13.4,7.5
	c1.5,14.9-15.5,9.7-15.5,9.7L41.3,28.9z"/>
<path class="st3" d="M33.5,36.9L9.4,36.6c0,0,3.5,17.1,11.5,15.7c7.9-1.4-9.5-1.2-0.7,7.4s16.4,3.9,16.4,3.9S36.6,77.7,50,71.2
	c13.5-6.6,0.1-18.3,0.1-18.3L33.5,36.9z"/>
<path class="st4" d="M35.3,37.6c0,0-0.5-6.6,5.5-8.1"/>
<path class="st5" d="M38.7,41.9c0,0,0.7-10.1,8.1-11.2"/>
<path class="st5" d="M41.6,45.1c0,0,1-9.9,8.7-13.6"/>
<path class="st4" d="M44.9,47.8c0,0,2.1-13,10.1-14.6"/>
<path class="st4" d="M47.5,49.6c0,0,3.4-15.7,12-15.7"/>
<path class="st4" d="M50.5,52.6c0,0,6-16.4,13.4-16.4"/>
<path class="st4" d="M55,55.5c0,1.7,2.3-14.3,13-16.5"/>
</svg>
